<mxfile modified="2020-09-03T14:21:35.211Z" host="app.diagrams.net" agent="5.0 (Windows NT 10.0; Win64; x64) AppleWebKit/537.36 (KHTML, like Gecko) Chrome/85.0.4183.83 Safari/537.36" etag="WfNstbFhL5nU_GEoNTKp" version="13.6.6" type="github">
  <diagram id="Ht1M8jgEwFfnCIfOTk4-" name="Page-1">
    <mxGraphModel dx="1038" dy="548" grid="1" gridSize="10" guides="1" tooltips="1" connect="1" arrows="1" fold="1" page="1" pageScale="1" pageWidth="1169" pageHeight="827" math="0" shadow="0">
      <root>
        <mxCell id="0" />
        <mxCell id="1" parent="0" />
        <mxCell id="Mdvwf4ZCkchpuMfPoP4Y-1" value="" style="outlineConnect=0;fontColor=#232F3E;gradientColor=none;fillColor=#3334B9;strokeColor=none;dashed=0;verticalLabelPosition=bottom;verticalAlign=top;align=center;html=1;fontSize=12;fontStyle=0;aspect=fixed;pointerEvents=1;shape=mxgraph.aws4.rds_sql_server_instance;" vertex="1" parent="1">
          <mxGeometry x="175" y="480" width="100" height="100" as="geometry" />
        </mxCell>
        <mxCell id="Mdvwf4ZCkchpuMfPoP4Y-3" value="" style="edgeStyle=orthogonalEdgeStyle;html=1;endArrow=open;elbow=vertical;startArrow=open;startFill=0;endFill=0;strokeColor=#545B64;rounded=0;exitX=0.5;exitY=1;exitDx=0;exitDy=0;strokeWidth=4;" edge="1" parent="1" source="Mdvwf4ZCkchpuMfPoP4Y-18" target="Mdvwf4ZCkchpuMfPoP4Y-1">
          <mxGeometry width="100" relative="1" as="geometry">
            <mxPoint x="180" y="380" as="sourcePoint" />
            <mxPoint x="580" y="380" as="targetPoint" />
          </mxGeometry>
        </mxCell>
        <mxCell id="Mdvwf4ZCkchpuMfPoP4Y-7" value="&lt;span style=&quot;font-size: 24px&quot;&gt;Website/Portal&lt;/span&gt;" style="points=[[0,0],[0.25,0],[0.5,0],[0.75,0],[1,0],[1,0.25],[1,0.5],[1,0.75],[1,1],[0.75,1],[0.5,1],[0.25,1],[0,1],[0,0.75],[0,0.5],[0,0.25]];outlineConnect=0;gradientColor=none;html=1;whiteSpace=wrap;fontSize=12;fontStyle=0;shape=mxgraph.aws4.group;grIcon=mxgraph.aws4.group_on_premise;fillColor=none;verticalAlign=top;align=left;spacingLeft=30;fontColor=#5A6C86;dashed=0;strokeWidth=5;strokeColor=#FF8000;" vertex="1" parent="1">
          <mxGeometry x="650" y="240" width="260" height="160" as="geometry" />
        </mxCell>
        <mxCell id="Mdvwf4ZCkchpuMfPoP4Y-9" value="&lt;font style=&quot;font-size: 18px&quot; color=&quot;#9933ff&quot;&gt;&lt;b&gt;Parents&lt;/b&gt;&lt;/font&gt;" style="outlineConnect=0;fontColor=#232F3E;gradientColor=none;strokeColor=none;dashed=0;verticalLabelPosition=bottom;verticalAlign=top;align=center;html=1;fontSize=12;fontStyle=0;aspect=fixed;pointerEvents=1;shape=mxgraph.aws4.user;sketch=0;strokeWidth=3;fillColor=#9933FF;" vertex="1" parent="1">
          <mxGeometry x="730" y="502" width="78" height="78" as="geometry" />
        </mxCell>
        <mxCell id="Mdvwf4ZCkchpuMfPoP4Y-15" value="" style="pointerEvents=1;shadow=0;dashed=0;html=1;strokeColor=none;labelPosition=center;verticalLabelPosition=bottom;verticalAlign=top;align=center;fillColor=#00994D;shape=mxgraph.mscae.intune.company_portal;sketch=0;" vertex="1" parent="1">
          <mxGeometry x="780" y="280" width="110" height="100" as="geometry" />
        </mxCell>
        <mxCell id="Mdvwf4ZCkchpuMfPoP4Y-16" value="" style="pointerEvents=1;shadow=0;dashed=0;html=1;strokeColor=none;labelPosition=center;verticalLabelPosition=bottom;verticalAlign=top;outlineConnect=0;align=center;shape=mxgraph.office.concepts.website;sketch=0;fillColor=#0000CC;" vertex="1" parent="1">
          <mxGeometry x="670" y="290" width="90" height="80" as="geometry" />
        </mxCell>
        <mxCell id="Mdvwf4ZCkchpuMfPoP4Y-17" value="" style="pointerEvents=1;shadow=0;dashed=0;html=1;strokeColor=none;labelPosition=center;verticalLabelPosition=bottom;verticalAlign=top;outlineConnect=0;align=center;shape=mxgraph.office.concepts.website;sketch=0;fillColor=#003366;" vertex="1" parent="1">
          <mxGeometry x="160" y="285" width="130" height="110" as="geometry" />
        </mxCell>
        <mxCell id="Mdvwf4ZCkchpuMfPoP4Y-18" value="&lt;span style=&quot;font-size: 24px&quot;&gt;Head Office&lt;/span&gt;" style="points=[[0,0],[0.25,0],[0.5,0],[0.75,0],[1,0],[1,0.25],[1,0.5],[1,0.75],[1,1],[0.75,1],[0.5,1],[0.25,1],[0,1],[0,0.75],[0,0.5],[0,0.25]];outlineConnect=0;gradientColor=none;html=1;whiteSpace=wrap;fontSize=12;fontStyle=0;shape=mxgraph.aws4.group;grIcon=mxgraph.aws4.group_on_premise;fillColor=none;verticalAlign=top;align=left;spacingLeft=30;fontColor=#5A6C86;dashed=0;strokeWidth=5;strokeColor=#003366;" vertex="1" parent="1">
          <mxGeometry x="110" y="239" width="230" height="160" as="geometry" />
        </mxCell>
        <mxCell id="Mdvwf4ZCkchpuMfPoP4Y-19" value="&lt;br&gt;" style="endArrow=classic;html=1;entryX=0;entryY=0.5;entryDx=0;entryDy=0;exitX=1;exitY=0.5;exitDx=0;exitDy=0;strokeWidth=4;strokeColor=#545B64;" edge="1" parent="1" source="Mdvwf4ZCkchpuMfPoP4Y-18" target="Mdvwf4ZCkchpuMfPoP4Y-7">
          <mxGeometry x="-0.037" y="20" relative="1" as="geometry">
            <mxPoint x="350" y="320" as="sourcePoint" />
            <mxPoint x="490" y="319.5" as="targetPoint" />
            <mxPoint as="offset" />
          </mxGeometry>
        </mxCell>
        <mxCell id="Mdvwf4ZCkchpuMfPoP4Y-20" value="&lt;font style=&quot;font-size: 14px&quot;&gt;Read Only Data Transfer&lt;/font&gt;" style="edgeLabel;resizable=0;html=1;align=center;verticalAlign=middle;spacing=11;" connectable="0" vertex="1" parent="Mdvwf4ZCkchpuMfPoP4Y-19">
          <mxGeometry relative="1" as="geometry">
            <mxPoint y="-3" as="offset" />
          </mxGeometry>
        </mxCell>
        <mxCell id="Mdvwf4ZCkchpuMfPoP4Y-21" value="&lt;font style=&quot;font-size: 14px&quot;&gt;Source&lt;/font&gt;" style="edgeLabel;resizable=0;html=1;align=left;verticalAlign=bottom;" connectable="0" vertex="1" parent="Mdvwf4ZCkchpuMfPoP4Y-19">
          <mxGeometry x="-1" relative="1" as="geometry">
            <mxPoint x="5" y="-10" as="offset" />
          </mxGeometry>
        </mxCell>
        <mxCell id="Mdvwf4ZCkchpuMfPoP4Y-22" value="&lt;font style=&quot;font-size: 14px&quot;&gt;Target&lt;/font&gt;" style="edgeLabel;resizable=0;html=1;align=right;verticalAlign=bottom;" connectable="0" vertex="1" parent="Mdvwf4ZCkchpuMfPoP4Y-19">
          <mxGeometry x="1" relative="1" as="geometry">
            <mxPoint x="-10" y="-10" as="offset" />
          </mxGeometry>
        </mxCell>
        <mxCell id="Mdvwf4ZCkchpuMfPoP4Y-24" value="&lt;font size=&quot;1&quot; color=&quot;#009900&quot;&gt;&lt;b style=&quot;font-size: 18px&quot;&gt;Students&lt;/b&gt;&lt;/font&gt;" style="outlineConnect=0;fontColor=#232F3E;gradientColor=none;strokeColor=none;dashed=0;verticalLabelPosition=bottom;verticalAlign=top;align=center;html=1;fontSize=12;fontStyle=0;aspect=fixed;pointerEvents=1;shape=mxgraph.aws4.user;sketch=0;strokeWidth=3;fillColor=#009900;" vertex="1" parent="1">
          <mxGeometry x="832" y="502" width="78" height="78" as="geometry" />
        </mxCell>
        <mxCell id="Mdvwf4ZCkchpuMfPoP4Y-26" value="" style="edgeStyle=orthogonalEdgeStyle;html=1;endArrow=open;elbow=vertical;startArrow=open;startFill=0;endFill=0;strokeColor=#545B64;rounded=0;exitX=0.5;exitY=1;exitDx=0;exitDy=0;exitPerimeter=0;strokeWidth=4;" edge="1" parent="1" source="Mdvwf4ZCkchpuMfPoP4Y-15" target="Mdvwf4ZCkchpuMfPoP4Y-24">
          <mxGeometry width="100" relative="1" as="geometry">
            <mxPoint x="460" y="460" as="sourcePoint" />
            <mxPoint x="560" y="460" as="targetPoint" />
            <Array as="points">
              <mxPoint x="835" y="450" />
              <mxPoint x="871" y="450" />
            </Array>
          </mxGeometry>
        </mxCell>
        <mxCell id="Mdvwf4ZCkchpuMfPoP4Y-27" value="" style="edgeStyle=orthogonalEdgeStyle;html=1;endArrow=open;elbow=vertical;startArrow=open;startFill=0;endFill=0;strokeColor=#545B64;rounded=0;exitX=0.287;exitY=1.006;exitDx=0;exitDy=0;exitPerimeter=0;strokeWidth=4;" edge="1" parent="1" source="Mdvwf4ZCkchpuMfPoP4Y-15" target="Mdvwf4ZCkchpuMfPoP4Y-9">
          <mxGeometry width="100" relative="1" as="geometry">
            <mxPoint x="720" y="414" as="sourcePoint" />
            <mxPoint x="750" y="490" as="targetPoint" />
            <Array as="points">
              <mxPoint x="812" y="450" />
              <mxPoint x="769" y="450" />
            </Array>
          </mxGeometry>
        </mxCell>
        <mxCell id="Mdvwf4ZCkchpuMfPoP4Y-29" value="" style="edgeStyle=orthogonalEdgeStyle;html=1;endArrow=open;elbow=vertical;startArrow=open;startFill=0;endFill=0;strokeColor=#545B64;rounded=0;strokeWidth=4;" edge="1" parent="1" source="Mdvwf4ZCkchpuMfPoP4Y-16" target="Mdvwf4ZCkchpuMfPoP4Y-30">
          <mxGeometry width="100" relative="1" as="geometry">
            <mxPoint x="707.9699999999999" y="380" as="sourcePoint" />
            <mxPoint x="669" y="502.06467661691545" as="targetPoint" />
            <Array as="points">
              <mxPoint x="708" y="460" />
              <mxPoint x="669" y="460" />
            </Array>
          </mxGeometry>
        </mxCell>
        <mxCell id="Mdvwf4ZCkchpuMfPoP4Y-30" value="&lt;font style=&quot;font-size: 18px&quot; color=&quot;#6666ff&quot;&gt;&lt;b&gt;Everyone&lt;/b&gt;&lt;/font&gt;" style="outlineConnect=0;fontColor=#232F3E;gradientColor=none;strokeColor=none;dashed=0;verticalLabelPosition=bottom;verticalAlign=top;align=center;html=1;fontSize=12;fontStyle=0;aspect=fixed;pointerEvents=1;shape=mxgraph.aws4.users;sketch=0;strokeWidth=3;fillColor=#6666FF;" vertex="1" parent="1">
          <mxGeometry x="630" y="500" width="78" height="78" as="geometry" />
        </mxCell>
      </root>
    </mxGraphModel>
  </diagram>
</mxfile>
